<?xml version="1.0" encoding="UTF-8" standalone="no"?>
<!-- Filename: 9c6be15aea06058b542a604a9092291b9f4346bc27a8b274e94fa4ab8c62a8b7.svg -->
<!-- Created with https://svgstud.io -->
<svg
  version="1.1"
  xmlns="http://www.w3.org/2000/svg"
  xmlns:xlink="http://www.w3.org/1999/xlink"
  xmlns:svg="http://www.w3.org/2000/svg"
  xmlns:rdf="http://www.w3.org/1999/02/22-rdf-syntax-ns#"
  xmlns:cc="http://creativecommons.org/ns#"
  xmlns:dc="http://purl.org/dc/elements/1.1/"
  viewBox="0 0 768 768"
  width="768"
  height="768"
  role="img"
  aria-labelledby="titleID descID"
>
  <title id="titleID">simplified line drawing of one great wave in black and white, without a background encased in a thick circle</title>
  <desc id="descID">AI-generated SVG illustration: simplified line drawing of one great wave in black and white, without a background encased in a thick circle, created on https://svgstud.io</desc>

  <rect width="100%" height="100%" fill="white" />

  <image
    href="https://svgstud.io/pngs/9c6be15aea06058b542a604a9092291b9f4346bc27a8b274e94fa4ab8c62a8b7.png"
    x="0" y="0"
    width="768" height="768"
    preserveAspectRatio="xMidYMid meet"
    opacity="0"
  />

  <metadata>
    Created by https://svgstud.io and licensed under CC-BY-SA 4.0 license. Please attribute https://svgstud.io
  </metadata>
  <metadata>
    simplified line drawing of one great wave in black and white, without a background encased in a thick circle
  </metadata>
  <metadata>
    7
  </metadata>
  <metadata>
    <rdf:RDF
      xmlns:rdf="http://www.w3.org/1999/02/22-rdf-syntax-ns#"
      xmlns:cc="http://creativecommons.org/ns#"
      xmlns:dc="http://purl.org/dc/elements/1.1/"
    >
      <cc:Work rdf:about="">
        <cc:license rdf:resource="http://creativecommons.org/licenses/by-sa/4.0/" />
        <dc:creator>
          <cc:Agent>
            <dc:title>https://svgstud.io</dc:title>
          </cc:Agent>
        </dc:creator>
      </cc:Work>
      <cc:License rdf:about="http://creativecommons.org/licenses/by-sa/4.0/">
        <cc:permits rdf:resource="http://creativecommons.org/ns#Reproduction" />
        <cc:permits rdf:resource="http://creativecommons.org/ns#Distribution" />
        <cc:requires rdf:resource="http://creativecommons.org/ns#Notice" />
        <cc:requires rdf:resource="http://creativecommons.org/ns#Attribution" />
        <cc:permits rdf:resource="http://creativecommons.org/ns#DerivativeWorks" />
        <cc:requires rdf:resource="http://creativecommons.org/ns#ShareAlike" />
      </cc:License>
    </rdf:RDF>
  </metadata>
  <metadata id="uid">9c6be15aea06058b542a604a9092291b9f4346bc27a8b274e94fa4ab8c62a8b7</metadata>

  <path stroke="none" fill="black" fill-rule="evenodd" d="M375.00,685.82C364.27,685.74 353.70,685.52 351.50,685.35C349.30,685.18 342.77,684.54 337.00,683.93C331.23,683.31 321.77,681.92 316.00,680.84C310.23,679.75 300.10,677.52 293.50,675.87C286.90,674.22 276.77,671.27 271.00,669.32C265.23,667.37 256.23,663.97 251.00,661.76C245.78,659.56 237.99,656.00 233.71,653.85C229.42,651.70 220.87,646.96 214.71,643.32C208.54,639.68 199.90,634.20 195.50,631.14C191.10,628.08 183.93,622.87 179.56,619.56C175.19,616.26 166.64,609.00 160.56,603.43C154.48,597.87 146.09,589.53 141.92,584.91C137.76,580.28 131.66,573.12 128.37,569.00C125.08,564.88 119.66,557.67 116.33,553.00C113.00,548.33 107.22,539.55 103.48,533.50C99.74,527.45 93.34,515.52 89.26,507.00C85.19,498.48 79.45,485.43 76.52,478.00C73.59,470.57 69.78,459.88 68.05,454.23C66.32,448.59 63.99,439.81 62.87,434.73C61.75,429.66 59.98,420.55 58.93,414.50C57.88,408.45 56.52,396.52 55.92,388.00C55.30,379.43 55.10,366.24 55.46,358.50C55.82,350.80 56.79,338.43 57.62,331.00C58.45,323.57 60.25,312.10 61.62,305.50C62.98,298.90 65.43,288.76 67.05,282.97C68.67,277.18 71.96,267.28 74.36,260.97C76.77,254.66 80.87,244.78 83.47,239.00C86.07,233.22 89.82,225.57 91.80,222.00C93.77,218.43 98.73,210.10 102.80,203.50C106.88,196.90 113.95,186.55 118.50,180.50C123.06,174.45 131.28,164.55 136.75,158.50C142.23,152.45 151.78,143.00 157.97,137.50C164.16,132.00 173.57,124.18 178.86,120.13C184.16,116.08 192.32,110.19 197.00,107.04C201.68,103.90 209.85,98.77 215.17,95.65C220.48,92.53 232.41,86.44 241.67,82.12C250.92,77.79 264.80,72.14 272.50,69.56C280.20,66.98 291.90,63.54 298.50,61.92C305.10,60.31 316.57,58.08 324.00,56.99C331.43,55.89 345.33,54.50 354.90,53.91C367.69,53.11 376.81,53.12 389.24,53.96C398.56,54.59 412.79,56.18 420.87,57.51C428.95,58.84 440.72,61.27 447.03,62.91C453.34,64.55 463.28,67.48 469.13,69.41C474.97,71.35 485.10,75.25 491.63,78.09C498.16,80.93 507.10,85.05 511.50,87.25C515.90,89.45 523.10,93.30 527.50,95.81C531.90,98.31 541.12,104.07 548.00,108.61C554.88,113.15 565.45,120.79 571.50,125.61C577.55,130.42 589.95,141.81 599.05,150.93C608.15,160.04 619.23,172.01 623.67,177.52C628.10,183.04 634.87,192.04 638.70,197.52C642.54,203.01 648.39,212.00 651.71,217.50C655.02,223.00 660.21,232.45 663.25,238.50C666.28,244.55 670.39,253.44 672.38,258.27C674.37,263.09 677.83,272.31 680.07,278.77C682.31,285.22 685.65,296.80 687.49,304.50C689.34,312.20 691.55,323.00 692.39,328.50C693.24,334.00 694.40,344.30 694.97,351.40C695.54,358.49 696.00,372.52 696.00,382.59C696.00,395.07 696.36,401.10 697.13,401.58C697.91,402.06 698.04,404.90 697.56,410.89C697.18,415.62 695.51,426.02 693.86,433.99C692.20,441.96 688.69,455.01 686.05,462.99C683.40,470.97 678.91,482.90 676.07,489.50C673.23,496.10 668.23,506.56 664.95,512.74C661.68,518.92 656.21,528.37 652.78,533.74C649.36,539.11 643.44,547.77 639.63,553.00C635.81,558.23 628.99,566.77 624.47,572.00C619.95,577.23 612.48,585.33 607.87,590.00C603.26,594.67 594.99,602.38 589.49,607.11C584.00,611.85 574.23,619.50 567.80,624.11C561.36,628.73 551.69,635.18 546.30,638.45C540.91,641.72 530.20,647.66 522.50,651.63C514.80,655.61 502.87,661.11 495.98,663.86C489.10,666.60 478.05,670.45 471.42,672.42C464.79,674.38 454.45,677.06 448.43,678.38C442.42,679.70 433.00,681.51 427.50,682.40C422.00,683.29 412.32,684.46 406.00,685.00C399.68,685.54 385.73,685.91 375.00,685.82zM371.50,648.43C384.22,648.22 399.19,647.40 405.00,646.58C410.77,645.76 421.24,643.93 428.26,642.50C435.27,641.08 447.13,638.12 454.61,635.93C462.08,633.75 472.54,630.34 477.85,628.37C483.16,626.39 493.82,621.75 501.55,618.05C509.28,614.36 520.21,608.75 525.83,605.59C531.45,602.44 537.22,598.85 538.65,597.62C541.25,595.39 541.25,595.39 534.79,595.80C531.24,596.03 521.28,595.70 512.66,595.08C504.05,594.45 488.34,592.85 477.75,591.52C467.16,590.19 451.44,588.40 442.80,587.54C434.17,586.68 423.37,585.28 418.80,584.44C414.24,583.59 401.05,580.47 389.50,577.51C377.95,574.55 363.10,570.25 356.50,567.97C349.90,565.69 339.26,561.15 332.85,557.88C326.45,554.62 313.80,547.03 304.75,541.02C294.34,534.10 285.66,527.45 281.11,522.90C277.15,518.94 271.00,511.83 267.44,507.10C263.88,502.37 259.29,495.12 257.23,491.00C255.18,486.88 253.11,483.21 252.63,482.86C252.15,482.52 250.13,482.68 248.15,483.23C246.16,483.77 242.14,483.94 239.20,483.59C236.26,483.25 229.01,481.40 223.08,479.48C217.16,477.57 210.59,476.00 208.49,476.00C205.74,476.00 202.41,477.33 196.59,480.74C189.29,485.02 187.78,485.52 181.17,485.86C174.41,486.20 173.29,485.95 166.63,482.66C162.67,480.70 155.90,476.04 151.59,472.30C147.28,468.56 143.18,465.08 142.49,464.57C141.70,464.00 136.91,464.14 129.86,464.95C121.15,465.95 116.83,465.99 111.35,465.13C107.41,464.52 102.23,463.17 99.83,462.14C97.43,461.11 94.86,459.54 94.11,458.64C93.37,457.74 93.15,457.02 93.63,457.04C94.11,457.05 97.42,457.71 101.00,458.50C104.58,459.29 111.55,459.93 116.50,459.93C121.45,459.93 128.43,459.29 132.00,458.50C135.57,457.71 139.52,457.05 140.77,457.04C142.25,457.01 145.83,459.61 150.99,464.43C155.36,468.51 160.91,473.22 163.32,474.88C165.74,476.54 169.81,478.43 172.37,479.07C174.93,479.72 178.47,479.96 180.23,479.60C181.99,479.25 187.75,476.50 193.03,473.48C200.50,469.22 203.57,468.00 206.86,468.00C209.25,468.00 215.16,469.53 220.46,471.51C225.61,473.44 232.20,475.47 235.10,476.02C238.00,476.57 241.98,476.72 243.94,476.35C245.90,475.99 248.94,475.09 250.69,474.35C252.45,473.62 254.49,473.25 255.23,473.53C255.96,473.82 257.78,477.30 259.27,481.27C260.76,485.25 262.86,489.94 263.94,491.70C265.38,494.04 266.92,495.08 269.70,495.61C271.79,496.00 276.76,495.85 280.75,495.28C284.73,494.71 290.50,493.01 293.56,491.52C296.62,490.02 301.57,486.40 304.57,483.47C307.58,480.54 311.13,475.76 312.50,472.83C314.18,469.23 314.99,465.71 315.01,462.00C315.02,458.98 315.39,455.94 315.82,455.25C316.26,454.56 319.23,452.42 322.43,450.50C325.63,448.57 328.64,447.00 329.12,447.00C329.60,447.00 330.01,449.59 330.02,452.75C330.02,455.91 330.41,459.10 330.87,459.83C331.50,460.81 332.47,460.18 334.69,457.33C336.33,455.22 339.47,450.80 341.67,447.50C343.88,444.20 347.84,437.45 350.49,432.50C353.14,427.55 355.99,422.71 356.81,421.75C357.89,420.49 359.80,420.00 363.57,420.00C366.47,420.00 369.57,420.28 370.46,420.62C371.35,420.97 372.91,422.88 373.92,424.87C374.92,426.87 376.93,433.58 378.38,439.79C379.82,445.99 382.42,453.87 384.14,457.29C385.86,460.70 389.54,467.55 392.31,472.50C395.08,477.45 399.49,484.71 402.12,488.63C404.75,492.54 410.47,499.97 414.85,505.13C419.22,510.28 427.38,518.55 432.98,523.50C438.58,528.45 446.84,535.15 451.33,538.39C455.82,541.62 463.10,546.01 467.50,548.13C471.90,550.26 479.77,553.08 485.00,554.39C490.23,555.71 499.46,557.33 505.52,558.00C516.34,559.19 516.93,559.14 537.94,555.56C549.72,553.55 560.06,551.49 560.92,550.98C561.79,550.48 562.20,550.05 561.83,550.03C561.47,550.01 552.44,548.21 541.76,546.03C531.09,543.84 518.13,540.68 512.97,538.99C507.81,537.30 498.64,533.83 492.59,531.28C486.54,528.73 477.55,523.93 472.59,520.62C467.64,517.31 461.10,512.05 458.05,508.93C455.00,505.81 451.69,501.85 450.69,500.13C449.70,498.41 449.25,497.00 449.69,497.00C450.14,497.01 453.61,499.70 457.42,502.99C461.22,506.29 467.57,511.22 471.52,513.95C475.48,516.68 483.16,521.21 488.61,524.00C494.05,526.80 503.30,530.61 509.16,532.46C515.02,534.32 524.47,536.77 530.16,537.92C535.85,539.06 545.23,540.69 551.00,541.54C556.77,542.38 569.62,543.35 579.55,543.68C589.48,544.01 599.80,543.96 602.48,543.56C606.65,542.93 608.29,541.93 613.77,536.66C617.30,533.27 624.90,524.27 630.66,516.65C636.42,509.03 641.86,501.27 642.74,499.41C643.63,497.55 644.08,495.75 643.75,495.42C643.41,495.08 640.06,495.51 636.29,496.37C632.53,497.22 623.64,499.73 616.55,501.95C609.45,504.16 596.19,507.60 587.07,509.60C577.96,511.59 570.14,513.44 569.70,513.70C569.26,513.96 569.39,514.76 569.99,515.48C570.58,516.20 573.86,517.28 577.28,517.88C580.70,518.48 588.67,519.44 595.00,520.01C601.33,520.59 608.02,521.55 609.87,522.15C612.35,522.95 612.88,523.46 611.87,524.10C611.12,524.58 607.80,524.96 604.50,524.95C601.20,524.94 593.33,524.32 587.00,523.56C580.67,522.80 564.84,520.10 551.80,517.56C538.77,515.02 521.97,511.13 514.48,508.92C506.98,506.71 496.08,502.86 490.24,500.37C484.40,497.87 475.71,493.87 470.92,491.46C466.13,489.06 458.01,484.54 452.86,481.43C447.71,478.32 439.37,472.90 434.32,469.38C429.27,465.87 424.61,463.00 423.96,463.00C423.18,463.00 423.01,463.91 423.47,465.74C423.85,467.24 425.70,471.54 427.58,475.29C429.46,479.04 432.80,484.77 435.01,488.01C437.21,491.26 439.45,495.06 439.98,496.46C440.52,497.86 440.58,499.00 440.13,499.00C439.68,499.00 436.65,496.19 433.39,492.75C430.12,489.31 424.27,482.45 420.38,477.50C416.48,472.55 408.56,461.52 402.78,452.99C397.00,444.45 390.90,434.76 389.22,431.43C387.54,428.11 385.46,422.94 384.60,419.95C383.74,416.95 382.12,410.04 381.01,404.59C379.89,399.14 378.53,394.13 377.97,393.47C377.42,392.80 374.78,391.96 372.11,391.61C369.43,391.25 364.38,389.54 360.87,387.80C357.13,385.94 352.23,382.31 349.00,379.01C345.86,375.80 341.71,369.97 339.34,365.44C337.06,361.07 333.76,353.23 332.02,348.00C330.29,342.77 327.69,333.32 326.25,327.00C323.98,317.00 323.63,313.15 323.57,297.50C323.51,283.40 323.90,277.81 325.33,271.71C326.33,267.43 328.91,260.41 331.06,256.11C333.32,251.61 337.09,246.14 339.98,243.22C342.80,240.35 347.70,236.83 351.24,235.13C354.68,233.48 359.32,231.85 361.54,231.51C363.77,231.17 366.81,231.36 368.29,231.92C369.99,232.57 371.00,233.70 371.00,234.95C371.00,236.15 372.18,237.56 373.95,238.47C375.57,239.31 379.41,240.00 382.48,240.00C387.54,240.00 388.14,240.24 389.02,242.57C389.56,243.98 390.00,247.58 390.00,250.57C390.00,253.55 390.22,256.00 390.49,256.00C390.76,256.00 392.99,254.46 395.45,252.59C397.91,250.71 401.21,248.89 402.79,248.55C404.36,248.20 406.74,248.35 408.08,248.88C409.41,249.41 413.43,252.56 417.00,255.88C422.54,261.01 423.34,262.17 422.40,263.70C421.79,264.69 420.44,265.61 419.40,265.75C418.04,265.94 416.98,264.88 415.70,262.07C414.65,259.77 412.45,257.28 410.39,256.07C408.46,254.93 405.60,254.00 404.02,254.00C402.08,254.00 399.47,255.44 395.89,258.50C391.95,261.87 389.78,263.00 387.31,263.00C384.00,263.00 384.00,263.00 384.00,255.69C384.00,251.13 383.49,247.69 382.65,246.53C381.46,244.91 380.41,244.77 374.08,245.36C366.86,246.03 366.86,246.03 367.18,241.76C367.48,237.78 367.32,237.48 364.80,237.19C362.76,236.95 360.96,237.92 357.53,241.08C354.84,243.56 351.71,247.91 349.92,251.67C348.24,255.18 345.69,262.43 344.24,267.78C341.81,276.77 341.61,279.03 341.60,298.00C341.58,315.59 341.90,319.99 343.85,329.00C345.09,334.77 347.49,343.55 349.18,348.50C350.86,353.45 353.27,359.53 354.52,362.01C355.77,364.49 357.62,367.53 358.64,368.76C360.50,371.01 360.50,371.01 507.42,371.03C596.96,371.04 654.71,370.69 655.28,370.12C655.86,369.54 655.78,364.03 655.09,355.69C654.47,348.26 653.07,337.31 651.97,331.34C650.88,325.38 648.41,314.74 646.49,307.71C644.57,300.67 641.39,290.61 639.42,285.35C637.45,280.10 633.83,271.46 631.37,266.16C628.90,260.85 623.53,250.89 619.43,244.01C615.32,237.13 608.03,226.26 603.23,219.86C598.43,213.46 589.86,203.01 584.18,196.65C578.51,190.29 570.41,181.99 566.18,178.21C561.96,174.43 554.60,168.16 549.84,164.29C545.07,160.42 534.56,152.86 526.48,147.50C518.39,142.14 505.82,134.66 498.54,130.88C491.27,127.10 480.40,121.95 474.41,119.43C468.41,116.91 458.55,113.15 452.50,111.06C446.45,108.98 436.55,106.11 430.50,104.68C424.45,103.25 414.10,101.31 407.50,100.35C399.34,99.18 389.09,98.61 375.50,98.60C361.52,98.59 351.89,99.11 343.50,100.34C336.90,101.31 326.77,103.25 321.00,104.65C315.23,106.05 305.23,108.95 298.78,111.09C292.33,113.24 282.43,117.04 276.78,119.54C271.13,122.05 262.68,126.16 258.00,128.69C253.32,131.21 245.22,135.98 240.00,139.28C234.78,142.59 227.57,147.56 224.00,150.33C220.43,153.10 213.07,159.45 207.66,164.44C202.24,169.42 193.02,179.26 187.16,186.31C181.29,193.36 173.57,203.50 170.00,208.84C166.43,214.19 160.96,223.50 157.85,229.53C154.75,235.56 150.37,245.53 148.13,251.68C145.88,257.84 143.75,264.70 143.39,266.93C142.78,270.80 142.87,271.00 145.31,271.00C146.72,271.00 150.98,270.35 154.78,269.55C158.58,268.75 165.24,266.76 169.59,265.13C173.94,263.49 183.80,259.38 191.50,255.99C199.20,252.60 206.91,248.75 208.64,247.44C210.37,246.14 215.72,239.56 220.54,232.84C225.35,226.11 230.28,218.33 231.49,215.55C232.70,212.77 234.20,209.26 234.82,207.75C235.86,205.24 236.42,205.00 241.23,205.01C244.13,205.01 248.24,205.49 250.37,206.08C253.19,206.87 254.52,207.92 255.29,209.97C255.88,211.51 257.58,213.50 259.08,214.39C260.58,215.28 262.51,216.00 263.37,216.00C264.36,216.00 265.44,214.25 266.37,211.13C267.17,208.45 268.49,204.96 269.32,203.38C270.15,201.80 272.33,199.07 274.16,197.32C276.00,195.57 279.90,192.94 282.84,191.47C285.77,190.01 291.80,188.17 296.24,187.40C300.68,186.62 304.98,185.43 305.81,184.75C306.63,184.06 307.89,182.11 308.60,180.41C309.31,178.71 309.64,176.34 309.33,175.16C308.96,173.72 309.23,173.00 310.13,173.00C310.89,173.00 315.27,173.67 319.87,174.48C324.47,175.29 329.87,176.75 331.87,177.72C333.87,178.70 335.64,180.24 335.80,181.15C336.04,182.44 334.97,182.95 330.80,183.51C327.89,183.90 322.12,185.78 318.00,187.68C313.88,189.59 307.10,192.23 302.94,193.56C298.78,194.88 292.74,197.82 289.51,200.08C286.28,202.34 281.90,205.61 279.79,207.35C277.67,209.08 274.43,212.57 272.58,215.09C269.34,219.54 269.02,219.71 262.86,220.30C259.36,220.64 254.22,221.60 251.43,222.44C248.64,223.28 244.77,225.21 242.82,226.73C240.87,228.25 236.96,232.42 234.13,235.99C231.30,239.57 227.39,245.53 225.44,249.24C223.49,252.95 221.13,256.39 220.20,256.89C219.26,257.39 215.89,258.12 212.70,258.52C209.51,258.92 206.30,259.84 205.57,260.57C204.84,261.31 203.45,265.19 202.48,269.20C201.52,273.22 200.18,277.58 199.51,278.89C198.55,280.79 198.11,281.00 197.40,279.89C196.90,279.13 196.05,275.84 195.50,272.58C194.95,269.33 193.96,266.48 193.30,266.27C192.64,266.05 190.02,267.78 187.48,270.13C184.94,272.47 181.71,276.34 180.31,278.73C178.91,281.12 176.92,285.80 175.88,289.12C174.85,292.45 174.00,297.63 174.00,300.63C174.00,305.09 173.55,306.54 171.55,308.55C170.20,309.90 168.62,311.00 168.05,311.00C167.41,311.00 167.00,307.90 167.00,303.00C167.00,296.04 166.77,295.00 165.24,295.00C164.28,295.00 162.08,295.40 160.37,295.89C158.56,296.41 155.28,296.42 152.57,295.91C149.99,295.43 145.85,293.58 143.38,291.81C139.88,289.29 138.70,288.87 138.06,289.91C137.60,290.64 136.28,296.03 135.12,301.87C133.96,307.72 132.57,316.77 132.03,322.00C131.48,327.23 131.03,337.33 131.02,344.46C131.01,351.59 131.71,363.29 132.59,370.46C133.46,377.63 135.25,386.57 136.55,390.33C137.86,394.08 139.90,398.73 141.09,400.65C142.33,402.65 142.88,404.52 142.38,405.01C141.88,405.50 138.09,405.45 133.69,404.90C129.39,404.37 122.35,402.81 118.03,401.45C113.72,400.09 107.56,397.20 104.34,395.03C101.13,392.87 95.66,388.60 92.19,385.55C88.72,382.50 84.98,379.52 83.88,378.93C82.46,378.17 79.36,378.17 73.19,378.93C68.41,379.51 63.94,380.00 63.25,380.00C62.39,380.00 62.00,381.87 62.00,386.01C62.00,389.31 62.69,396.59 63.53,402.18C64.37,407.77 65.74,415.75 66.58,419.92C67.42,424.09 69.94,434.02 72.18,442.00C74.43,449.98 77.78,460.48 79.63,465.34C81.49,470.21 85.74,479.66 89.08,486.34C92.43,493.03 97.68,502.32 100.75,507.00C103.83,511.68 108.59,518.31 111.34,521.75C114.10,525.19 117.38,528.67 118.64,529.50C120.73,530.87 121.09,530.82 122.80,528.99C124.65,527.00 124.71,527.03 130.60,533.24C133.86,536.68 139.88,543.24 143.96,547.81C148.05,552.38 156.59,560.72 162.95,566.33C169.30,571.95 176.75,578.39 179.50,580.65C182.25,582.91 188.21,587.51 192.74,590.87C197.27,594.23 205.37,599.83 210.74,603.32C216.11,606.80 224.32,611.72 229.00,614.24C233.68,616.77 242.15,620.91 247.82,623.45C253.50,625.98 264.07,630.10 271.32,632.60C278.57,635.10 290.44,638.67 297.69,640.54C304.95,642.42 317.32,644.86 325.19,645.96C333.06,647.07 341.52,648.16 344.00,648.39C346.48,648.61 358.85,648.63 371.50,648.43zM406.00,637.87C405.73,637.81 403.22,637.38 400.42,636.92C397.63,636.45 390.66,634.46 384.92,632.49C379.19,630.53 370.77,628.04 366.21,626.96C361.65,625.88 356.06,624.05 353.78,622.89C351.51,621.73 347.30,618.56 344.42,615.84C341.55,613.12 338.65,609.56 337.97,607.92C337.29,606.28 336.98,604.69 337.29,604.38C337.59,604.07 339.79,604.94 342.17,606.31C344.55,607.67 349.62,609.31 353.43,609.95C357.23,610.60 361.81,611.73 363.59,612.47C365.38,613.22 370.14,616.29 374.17,619.31C378.20,622.32 383.75,625.89 386.50,627.25C389.25,628.61 395.46,631.20 400.31,633.01C406.18,635.21 408.68,636.59 407.81,637.14C407.09,637.60 406.27,637.92 406.00,637.87zM317.25,613.95C315.74,613.92 311.79,612.89 308.49,611.66C305.18,610.43 300.42,608.01 297.91,606.28C295.40,604.56 290.90,600.49 287.90,597.26C284.90,594.02 281.94,589.71 281.32,587.69C280.70,585.66 280.53,584.00 280.94,584.00C281.35,584.00 282.52,584.91 283.53,586.03C284.54,587.15 286.75,588.91 288.43,589.95C290.12,590.99 294.43,592.36 298.00,593.01C301.57,593.65 305.09,594.66 305.81,595.26C306.53,595.85 310.02,600.10 313.56,604.69C317.10,609.28 320.00,613.25 320.00,613.52C320.00,613.78 318.76,613.98 317.25,613.95zM328.20,613.00C327.75,613.00 325.99,611.54 324.29,609.75C322.58,607.96 319.61,603.58 317.69,600.00C315.77,596.42 313.89,592.45 313.50,591.16C312.95,589.29 313.15,588.88 314.52,589.16C315.46,589.35 319.08,594.42 322.61,600.49C326.13,606.54 329.00,611.83 329.00,612.24C329.00,612.66 328.64,613.00 328.20,613.00zM268.19,588.97C267.26,588.96 263.42,587.30 259.65,585.29C254.54,582.56 250.62,579.27 244.15,572.29C239.39,567.15 234.26,560.82 232.74,558.22C231.23,555.62 229.51,551.78 228.93,549.67C228.16,546.85 228.19,545.47 229.06,544.42C229.71,543.64 231.98,543.00 234.09,543.00C237.69,543.00 238.18,543.38 241.57,548.75C243.57,551.91 246.85,556.23 248.85,558.34C250.86,560.45 254.61,563.25 257.18,564.57C259.75,565.88 262.20,567.51 262.62,568.19C263.04,568.87 265.05,573.49 267.09,578.46C269.13,583.43 270.59,587.84 270.34,588.25C270.09,588.66 269.12,588.99 268.19,588.97zM508.50,584.44C521.17,584.25 533.47,583.49 539.50,582.53C545.00,581.65 553.33,580.05 558.00,578.95C562.67,577.86 569.20,575.63 572.50,574.00C575.80,572.37 582.55,567.59 587.50,563.39C592.45,559.18 596.86,555.12 597.30,554.37C597.85,553.42 597.55,553.01 596.30,553.02C595.31,553.04 592.70,553.48 590.50,554.02C588.30,554.55 577.28,556.13 566.01,557.53C554.73,558.94 544.61,560.29 543.51,560.53C542.40,560.78 531.38,563.28 519.00,566.10C497.95,570.89 495.85,571.19 486.50,570.73C478.87,570.35 474.27,569.49 467.09,567.08C461.91,565.35 453.59,561.96 448.59,559.56C443.59,557.16 435.45,552.53 430.50,549.28C425.55,546.02 417.45,539.98 412.50,535.84C407.55,531.70 400.28,524.92 396.35,520.77C392.42,516.61 386.68,509.85 383.58,505.74C380.49,501.63 375.94,494.72 373.47,490.40C371.01,486.08 367.68,479.37 366.07,475.50C364.45,471.63 361.70,462.85 359.94,455.98C358.19,449.12 356.41,442.86 355.99,442.07C355.43,441.03 354.68,441.71 353.19,444.63C352.07,446.82 350.60,451.31 349.92,454.62C348.95,459.32 348.93,462.87 349.84,470.91C350.49,476.56 352.17,484.63 353.58,488.84C354.99,493.05 358.33,501.00 361.01,506.50C363.69,512.00 367.79,519.42 370.12,523.00C372.45,526.58 378.89,534.04 384.43,539.58C389.97,545.12 398.77,552.61 404.00,556.22C409.23,559.83 418.47,565.53 424.54,568.89C430.61,572.24 439.29,576.34 443.81,577.99C449.40,580.03 456.13,581.48 464.77,582.49C471.77,583.31 479.75,584.16 482.50,584.38C485.25,584.60 496.95,584.63 508.50,584.44zM391.24,567.00C391.80,567.00 385.11,559.67 376.38,550.71C367.64,541.76 357.12,529.91 353.00,524.39C348.88,518.87 344.47,513.04 343.21,511.43C340.91,508.50 340.91,508.50 341.51,511.50C341.85,513.15 344.00,517.82 346.31,521.88C348.61,525.95 353.24,532.47 356.59,536.38C359.94,540.30 366.14,546.77 370.36,550.77C374.59,554.77 380.79,560.05 384.13,562.52C387.48,564.98 390.68,567.00 391.24,567.00zM208.67,550.93C206.93,550.90 203.39,550.30 200.82,549.61C198.25,548.91 194.50,547.10 192.50,545.57C190.50,544.04 187.49,540.93 185.81,538.65C184.13,536.37 181.93,532.70 180.93,530.50C179.72,527.87 179.44,526.16 180.08,525.52C180.73,524.87 183.85,527.37 189.18,532.82C193.65,537.38 198.92,541.93 200.90,542.92C202.88,543.91 206.86,545.28 209.75,545.96C212.74,546.67 215.00,547.76 215.00,548.49C215.00,549.20 214.29,550.06 213.42,550.39C212.55,550.73 210.41,550.97 208.67,550.93zM346.19,550.00C346.69,550.00 345.10,547.19 342.66,543.75C340.22,540.31 336.18,533.45 333.70,528.50C331.22,523.55 327.51,514.10 325.46,507.50C323.42,500.90 321.35,495.07 320.87,494.55C320.37,494.00 320.00,495.91 320.00,499.09C320.00,502.11 320.69,507.26 321.53,510.54C322.37,513.82 324.60,519.76 326.48,523.74C328.36,527.73 331.36,533.13 333.16,535.74C334.95,538.36 338.41,542.64 340.85,545.25C343.28,547.86 345.68,550.00 346.19,550.00zM311.64,535.00C311.90,535.00 311.94,534.66 311.72,534.25C311.50,533.84 309.29,529.23 306.80,524.00C304.31,518.77 301.27,511.47 300.06,507.76C298.84,504.05 297.43,500.77 296.92,500.45C296.41,500.14 296.00,500.79 296.00,501.89C296.00,503.00 296.50,506.29 297.11,509.20C297.72,512.12 299.67,517.65 301.44,521.50C303.20,525.35 306.11,529.96 307.90,531.75C309.69,533.54 311.37,535.00 311.64,535.00zM156.00,533.92C152.97,533.89 148.45,533.31 145.95,532.64C143.45,531.96 139.84,530.44 137.92,529.26C136.01,528.08 131.20,523.76 127.22,519.66C123.25,515.57 120.00,511.72 120.00,511.11C120.00,510.50 120.23,510.00 120.52,510.00C120.80,510.00 124.45,512.72 128.64,516.05C132.82,519.37 138.33,523.14 140.87,524.42C143.42,525.70 147.88,527.26 150.80,527.88C153.71,528.49 158.59,529.00 161.63,529.00C165.61,529.00 167.05,529.35 166.75,530.25C166.53,530.94 165.25,532.06 163.92,532.74C162.59,533.41 159.03,533.95 156.00,533.92zM401.61,514.00C401.92,514.00 400.52,511.04 398.49,507.42C396.47,503.80 393.27,497.73 391.39,493.92C389.51,490.12 386.83,482.84 385.42,477.75C384.01,472.66 382.49,467.60 382.03,466.50C381.50,465.21 381.38,466.10 381.70,469.00C381.98,471.48 382.83,476.65 383.60,480.50C384.37,484.35 386.73,491.10 388.85,495.50C390.97,499.90 394.58,505.86 396.87,508.75C399.17,511.64 401.30,514.00 401.61,514.00zM548.28,507.91C552.56,507.96 563.81,506.85 573.28,505.45C582.75,504.05 592.67,502.36 595.32,501.70C597.98,501.04 600.23,500.10 600.32,499.61C600.42,499.12 597.66,496.99 594.18,494.88C590.71,492.77 585.51,489.02 582.62,486.56C577.37,482.07 577.37,482.07 570.44,489.16C566.62,493.05 561.50,497.53 559.05,499.12C556.61,500.70 553.98,502.00 553.22,502.00C552.46,502.00 551.98,501.66 552.17,501.25C552.35,500.84 558.19,494.96 565.14,488.19C577.79,475.88 577.79,475.88 583.88,481.32C587.24,484.31 593.46,489.06 597.70,491.88C601.95,494.70 606.55,497.00 607.92,497.00C609.29,497.00 615.15,495.66 620.95,494.03C626.75,492.40 639.38,489.51 649.00,487.61C658.62,485.72 667.72,483.70 669.20,483.13C670.69,482.55 672.56,480.82 673.35,479.28C674.15,477.74 676.45,471.76 678.46,465.99C680.47,460.22 683.18,451.68 684.49,447.00C685.80,442.32 688.02,432.78 689.43,425.78C690.85,418.78 692.00,411.92 692.00,410.53C692.00,409.14 691.75,408.00 691.44,408.00C691.14,408.00 685.98,410.46 679.97,413.47C673.97,416.48 664.43,421.73 658.78,425.13C653.13,428.54 637.92,438.34 625.00,446.92C601.50,462.50 601.50,462.50 579.50,462.50C557.50,462.50 557.50,462.50 549.50,466.62C545.10,468.89 535.71,473.31 528.62,476.44C521.54,479.56 510.10,483.67 503.21,485.56C496.31,487.45 490.44,489.23 490.15,489.52C489.87,489.80 490.05,490.45 490.57,490.96C491.08,491.48 496.68,494.11 503.00,496.82C509.32,499.52 517.20,502.52 520.50,503.49C523.80,504.45 529.65,505.82 533.50,506.53C537.35,507.24 544.00,507.86 548.28,507.91zM493.75,482.36C495.81,482.07 499.89,481.13 502.80,480.27C507.15,478.98 509.19,477.51 514.18,472.10C517.52,468.47 522.44,462.39 525.13,458.59C527.91,454.65 530.00,450.58 530.00,449.11C530.00,446.83 528.91,447.61 520.25,456.13C514.89,461.41 507.57,468.16 504.00,471.13C500.43,474.11 495.81,477.58 493.75,478.85C491.69,480.12 490.00,481.55 490.00,482.02C490.00,482.49 491.69,482.64 493.75,482.36zM469.24,480.00C473.50,480.00 478.40,479.22 482.28,477.91C485.70,476.77 492.10,473.43 496.50,470.51C500.90,467.58 509.85,460.30 516.39,454.34C523.52,447.83 529.11,443.50 530.36,443.50C531.76,443.50 534.52,446.11 538.83,451.50C542.34,455.90 546.11,459.65 547.20,459.83C548.66,460.08 554.73,454.59 570.18,439.08C581.72,427.49 591.47,418.00 591.84,418.00C592.20,418.01 593.85,418.84 595.50,419.86C597.15,420.88 602.55,424.95 607.50,428.92C612.45,432.88 618.22,437.02 620.32,438.12C624.14,440.11 624.14,440.11 629.82,436.91C632.94,435.15 638.49,431.74 642.15,429.33C645.80,426.93 649.25,424.40 649.82,423.72C650.38,423.04 651.54,418.89 652.40,414.49C653.26,410.10 654.42,401.32 654.98,395.00C655.54,388.68 655.99,382.15 656.00,380.50C656.00,377.50 656.00,377.50 509.50,377.20C415.39,377.01 363.00,377.25 363.00,377.88C363.00,378.41 364.34,380.18 365.97,381.82C367.80,383.65 370.86,385.25 373.96,385.99C376.72,386.65 380.07,388.06 381.41,389.11C382.75,390.16 384.63,393.38 385.59,396.26C386.54,399.14 388.86,404.79 390.74,408.80C392.62,412.82 396.89,420.19 400.23,425.19C403.57,430.18 410.53,438.67 415.70,444.05C420.86,449.43 429.79,457.58 435.54,462.17C441.29,466.75 449.69,472.64 454.21,475.25C461.81,479.65 462.92,480.00 469.24,480.00zM282.19,471.77C281.54,471.99 280.75,471.52 280.45,470.74C280.15,469.95 280.37,466.43 280.95,462.91C281.52,459.38 281.99,454.59 281.99,452.25C282.00,449.91 282.48,448.00 283.06,448.00C283.64,448.00 285.04,450.09 286.17,452.65C287.64,455.98 288.08,458.57 287.72,461.76C287.45,464.22 286.36,467.39 285.30,468.80C284.24,470.22 282.84,471.55 282.19,471.77zM579.25,457.70C598.50,457.91 598.50,457.91 605.50,453.82C609.35,451.57 613.96,448.64 615.75,447.31C617.54,445.98 619.00,444.49 619.00,443.99C619.00,443.48 616.41,441.31 613.25,439.15C610.09,437.00 604.63,432.93 601.12,430.12C597.61,427.30 594.02,425.00 593.13,425.00C592.25,425.00 584.43,432.08 575.76,440.74C567.09,449.39 560.00,456.71 560.00,456.99C560.00,457.27 568.66,457.59 579.25,457.70zM477.33,451.47C464.77,451.72 453.15,451.56 451.50,451.12C448.50,450.32 448.50,450.32 451.32,449.16C453.17,448.40 461.86,448.01 476.82,448.02C489.29,448.02 500.11,448.42 500.86,448.89C501.72,449.44 501.84,449.98 501.19,450.38C500.62,450.73 489.89,451.22 477.33,451.47zM317.55,434.00C316.88,434.00 316.03,433.70 315.67,433.33C315.30,432.97 315.00,431.67 315.00,430.46C315.00,429.24 315.67,427.69 316.49,427.01C317.72,425.99 318.13,426.17 318.84,428.10C319.31,429.38 319.49,431.23 319.23,432.21C318.98,433.20 318.22,434.00 317.55,434.00zM504.33,425.78C460.78,425.99 444.97,425.76 444.45,424.92C444.06,424.29 444.36,423.38 445.12,422.90C445.88,422.42 473.14,422.02 505.69,422.02C541.16,422.01 565.11,422.37 565.46,422.93C565.77,423.44 565.46,424.23 564.77,424.68C564.07,425.13 536.87,425.63 504.33,425.78zM612.81,418.98C605.83,418.99 599.88,418.61 599.58,418.13C599.28,417.65 600.72,416.98 602.77,416.64C604.82,416.30 609.25,416.02 612.61,416.01C615.97,416.00 620.84,416.29 623.43,416.65C626.53,417.07 627.69,417.58 626.82,418.13C626.10,418.59 619.79,418.98 612.81,418.98zM188.70,415.00C187.98,415.00 186.02,413.54 184.34,411.75C182.66,409.96 179.87,406.39 178.14,403.82C176.41,401.24 174.21,398.92 173.25,398.65C172.29,398.39 169.73,397.87 167.56,397.51C165.40,397.14 161.00,395.52 157.80,393.90C154.60,392.28 149.06,388.10 145.49,384.60C141.92,381.10 139.00,377.51 139.00,376.62C139.00,375.73 139.48,375.00 140.07,375.00C140.66,375.00 143.16,376.18 145.62,377.62C148.08,379.06 150.29,380.04 150.54,379.79C150.79,379.54 151.29,376.56 151.64,373.17C151.99,369.78 152.62,367.00 153.02,367.00C153.43,367.00 155.94,369.59 158.62,372.75C161.29,375.91 164.16,379.09 164.99,379.81C165.82,380.52 168.50,382.44 170.95,384.06C173.39,385.68 176.12,387.00 177.00,387.00C177.89,387.00 179.41,386.42 180.39,385.70C182.05,384.49 182.06,384.02 180.63,378.45C179.79,375.18 178.79,369.01 178.41,364.75C177.85,358.41 177.98,357.00 179.14,357.00C179.92,357.00 181.45,357.63 182.54,358.39C183.63,359.16 186.96,360.51 189.94,361.39C192.92,362.28 197.69,363.00 200.53,363.00C204.21,363.00 206.15,362.49 207.31,361.21C208.20,360.23 209.68,357.64 210.59,355.46C211.71,352.82 212.24,348.83 212.21,343.50C212.18,338.88 211.49,333.66 210.58,331.14C209.72,328.75 209.30,326.33 209.64,325.77C210.02,325.16 212.34,324.99 215.39,325.35C218.57,325.72 224.34,327.83 230.70,330.97C236.30,333.74 242.01,336.00 243.37,336.00C244.74,336.00 246.53,335.33 247.34,334.51C248.16,333.70 249.31,330.77 249.91,328.00C250.50,325.23 251.68,321.31 252.52,319.29C253.37,317.26 255.14,314.19 256.46,312.46C257.82,310.68 261.79,307.92 265.65,306.08C270.80,303.62 272.07,302.62 270.91,301.97C270.06,301.50 266.15,300.37 262.20,299.48C258.26,298.58 254.01,297.02 252.77,296.01C251.52,295.00 250.75,293.92 251.06,293.60C251.38,293.29 257.34,292.05 264.31,290.84C271.29,289.63 277.00,288.26 277.00,287.80C277.00,287.35 275.54,286.08 273.76,285.00C271.97,283.91 267.21,281.82 263.17,280.35C257.45,278.26 255.61,277.10 254.84,275.08C254.26,273.56 254.14,268.74 254.54,263.38C254.91,258.37 255.54,253.75 255.93,253.11C256.46,252.25 257.56,252.33 260.16,253.42C262.09,254.23 265.88,255.18 268.58,255.54C273.50,256.19 273.50,256.19 276.19,247.34C277.68,242.41 280.63,235.79 282.84,232.37C285.01,229.00 289.28,223.76 292.31,220.73C295.35,217.69 299.90,213.79 302.44,212.04C304.97,210.30 310.07,207.45 313.77,205.70C320.10,202.72 321.18,202.53 332.00,202.52C339.72,202.51 344.26,202.93 345.81,203.82C347.68,204.89 347.90,205.42 346.93,206.58C346.27,207.38 342.87,209.39 339.38,211.06C335.31,213.00 330.70,216.41 326.58,220.53C322.53,224.58 318.94,229.41 316.91,233.53C314.48,238.47 313.97,240.37 314.84,241.24C315.70,242.10 317.27,241.98 321.21,240.71C324.09,239.79 326.81,239.41 327.26,239.86C327.71,240.31 326.42,243.79 324.40,247.59C322.37,251.39 319.44,257.57 317.88,261.33C316.32,265.08 314.30,271.61 313.39,275.83C312.33,280.73 311.73,288.19 311.73,296.50C311.72,305.07 312.27,311.78 313.33,316.20C314.22,319.89 316.09,325.26 317.47,328.14C318.86,331.02 320.00,333.52 320.00,333.69C320.00,333.86 319.31,334.00 318.46,334.00C317.61,334.00 315.03,333.04 312.71,331.87C310.39,330.69 306.81,328.40 304.75,326.78C300.99,323.83 300.99,323.83 296.45,326.02C293.96,327.23 290.25,330.21 288.21,332.65C286.17,335.08 283.12,339.42 281.44,342.29C279.20,346.09 277.45,347.82 274.94,348.69C273.05,349.35 268.35,349.90 264.50,349.92C260.65,349.94 255.84,349.57 253.81,349.10C251.27,348.51 249.99,348.59 249.71,349.37C249.48,349.99 249.87,355.68 250.59,362.00C251.30,368.32 251.91,374.77 251.94,376.32C251.99,378.79 251.73,379.05 249.75,378.43C248.51,378.04 244.96,376.00 241.85,373.89C237.07,370.65 236.01,370.28 235.01,371.49C234.36,372.27 232.35,377.55 230.55,383.21C227.28,393.50 227.28,393.50 222.70,393.34C219.88,393.25 214.91,391.77 209.81,389.52C205.24,387.50 200.28,385.47 198.80,385.01C196.84,384.40 195.19,384.66 192.80,385.94C190.98,386.92 186.96,389.14 183.85,390.88C179.71,393.20 178.32,394.50 178.65,395.77C178.90,396.72 181.55,400.83 184.55,404.89C187.55,408.95 190.00,412.89 190.00,413.64C190.00,414.39 189.41,415.00 188.70,415.00zM429.47,400.80C413.50,400.97 400.12,400.78 399.72,400.39C399.32,399.99 399.00,399.07 399.00,398.33C399.00,397.25 404.32,397.02 427.25,397.12C442.79,397.18 456.85,397.53 458.50,397.89C460.90,398.41 461.20,398.74 460.00,399.52C459.14,400.08 446.16,400.63 429.47,400.80zM561.50,399.82C506.06,400.10 497.23,399.94 495.50,398.65C493.56,397.21 493.59,397.14 496.50,396.40C498.15,395.98 527.40,395.61 561.50,395.58C595.60,395.54 624.84,395.89 626.49,396.34C629.31,397.11 629.36,397.22 627.49,398.33C626.04,399.18 608.11,399.59 561.50,399.82zM283.47,373.00C282.70,373.00 281.60,372.12 281.03,371.05C280.45,369.98 279.70,365.75 279.35,361.66C279.01,357.57 279.05,352.94 279.45,351.36C280.18,348.50 280.18,348.50 282.05,352.13C283.08,354.12 284.41,358.78 285.00,362.48C285.59,366.18 285.80,370.06 285.47,371.10C285.14,372.15 284.24,373.00 283.47,373.00zM229.02,299.00C228.44,299.00 226.39,296.52 224.46,293.50C222.52,290.47 220.68,287.32 220.36,286.50C220.00,285.57 220.37,285.00 221.32,285.00C222.16,285.00 224.17,286.12 225.79,287.48C227.41,288.84 229.30,291.31 229.98,292.96C230.67,294.61 230.97,296.65 230.65,297.48C230.32,298.32 229.59,299.00 229.02,299.00zM425.30,298.00C424.04,298.00 422.96,297.44 422.92,296.75C422.87,296.06 422.90,293.01 422.98,289.96C423.10,285.53 422.71,284.05 421.07,282.57C419.88,281.49 416.91,280.51 414.00,280.23C409.84,279.83 408.88,279.36 408.41,277.51C408.10,276.28 408.00,273.79 408.18,271.97C408.35,270.14 408.98,268.50 409.56,268.31C410.14,268.12 411.36,269.52 412.27,271.43C413.58,274.18 414.81,275.14 418.21,276.04C420.57,276.67 423.28,277.88 424.23,278.73C425.18,279.58 426.22,281.90 426.54,283.89C426.86,285.87 427.32,288.51 427.58,289.75C427.83,290.99 428.47,292.00 429.00,292.00C429.53,292.00 432.29,289.55 435.13,286.55C438.04,283.48 441.53,280.82 443.11,280.48C444.66,280.14 446.66,280.27 447.57,280.78C448.47,281.29 450.40,283.87 451.86,286.53C453.31,289.19 455.06,291.54 455.74,291.76C456.42,291.98 457.41,291.11 457.95,289.83C458.49,288.55 459.42,285.56 460.02,283.20C460.62,280.83 461.98,278.02 463.05,276.95C464.20,275.80 466.36,275.00 468.30,275.00C470.12,275.00 472.14,274.46 472.80,273.80C473.46,273.14 474.00,271.36 474.00,269.85C474.00,267.88 473.00,266.34 470.49,264.42C468.55,262.95 466.73,260.76 466.43,259.56C466.13,258.37 465.77,254.94 465.64,251.94C465.45,247.58 464.73,245.56 462.00,241.74C459.60,238.37 457.57,236.70 455.05,236.00C453.10,235.46 448.52,235.01 444.87,235.01C439.91,235.00 437.90,235.42 436.87,236.66C436.12,237.58 433.59,239.17 431.25,240.21C427.00,242.09 427.00,242.09 427.00,249.36C427.00,254.19 426.51,257.27 425.53,258.56C424.15,260.39 424.06,260.29 424.02,257.00C424.00,255.07 423.31,251.29 422.49,248.59C421.67,245.89 421.00,242.64 421.00,241.37C421.00,239.40 421.48,239.08 424.28,239.18C426.08,239.25 429.23,238.51 431.29,237.53C433.35,236.56 435.25,235.41 435.51,234.98C435.78,234.55 435.10,232.24 434.02,229.85C432.93,227.46 432.03,223.64 432.02,221.37C432.01,218.90 432.60,216.75 433.50,216.00C434.35,215.30 435.00,213.12 435.00,211.00C435.00,208.73 434.35,206.70 433.35,205.87C432.23,204.94 428.46,204.44 421.62,204.32C416.08,204.22 411.01,204.57 410.37,205.11C409.65,205.70 409.41,207.61 409.73,210.04C410.21,213.57 410.03,214.00 408.16,214.00C406.84,214.00 405.48,212.90 404.53,211.05C403.69,209.43 403.00,206.97 403.00,205.58C403.00,204.20 403.76,201.48 404.69,199.53C405.61,197.59 406.90,196.00 407.54,196.00C408.19,196.00 411.37,197.35 414.61,199.00C418.49,200.98 421.27,201.79 422.75,201.39C424.30,200.96 425.00,200.01 425.00,198.34C425.00,197.00 423.91,194.92 422.58,193.70C421.24,192.49 418.75,190.44 417.04,189.14C415.32,187.84 412.57,184.11 410.93,180.85C408.88,176.80 407.07,174.60 405.22,173.89C403.72,173.32 398.68,172.15 394.00,171.30C385.91,169.82 385.31,169.53 381.50,165.19C379.30,162.68 375.25,158.35 372.50,155.56C368.29,151.28 366.26,150.10 359.58,148.01C354.32,146.37 350.13,144.27 347.08,141.75C344.56,139.66 340.70,137.46 338.50,136.85C336.09,136.19 330.46,135.98 324.33,136.32C316.02,136.78 311.91,137.63 301.84,141.01C291.84,144.37 287.26,145.33 277.55,146.12C270.96,146.65 263.60,147.53 261.19,148.07C258.77,148.61 255.38,149.78 253.65,150.67C251.92,151.57 246.00,155.32 240.50,159.03C235.00,162.73 228.04,167.00 225.04,168.51C222.03,170.02 216.69,172.34 213.16,173.66C209.63,174.99 206.55,175.88 206.31,175.64C206.07,175.40 207.36,174.11 209.18,172.77C211.01,171.43 217.00,167.77 222.50,164.62C228.00,161.48 236.74,156.00 241.91,152.44C247.09,148.87 253.62,145.30 256.41,144.49C259.21,143.68 268.02,142.36 276.00,141.56C287.39,140.41 292.00,139.49 297.50,137.23C301.35,135.65 306.75,133.72 309.50,132.93C312.73,132.01 319.30,131.50 328.07,131.50C341.52,131.50 341.67,131.53 345.95,134.50C348.32,136.15 351.44,138.30 352.88,139.27C354.32,140.24 358.65,142.00 362.50,143.16C368.50,144.99 370.28,146.11 375.00,151.04C378.02,154.20 382.07,158.57 384.00,160.74C387.25,164.43 388.16,164.83 396.80,166.49C402.07,167.50 407.45,169.19 409.20,170.38C410.90,171.55 413.70,175.20 415.42,178.50C417.44,182.36 421.64,187.53 427.22,193.00C431.98,197.68 437.03,202.50 438.44,203.71C440.36,205.38 441.00,206.89 441.00,209.79C441.00,211.91 440.28,215.76 439.40,218.34C437.93,222.65 437.93,223.25 439.40,225.48C440.30,226.87 442.62,228.34 444.75,228.88C446.81,229.41 451.06,230.36 454.19,230.98C457.32,231.61 460.93,232.94 462.21,233.95C463.49,234.96 465.56,237.83 466.82,240.35C468.32,243.36 469.02,246.38 468.88,249.21C468.76,251.57 469.19,254.50 469.85,255.72C470.50,256.94 473.05,259.12 475.52,260.56C479.09,262.66 479.99,263.73 479.94,265.85C479.91,267.31 479.11,270.95 478.17,273.95C476.46,279.40 476.46,279.40 471.05,280.45C465.65,281.50 465.65,281.50 463.46,288.28C462.25,292.01 461.09,295.22 460.88,295.40C460.67,295.58 459.47,296.26 458.21,296.92C456.95,297.57 455.00,297.82 453.86,297.46C452.62,297.06 450.85,294.65 449.41,291.40C447.51,287.10 446.55,286.00 444.70,286.00C443.38,286.00 441.10,287.36 439.44,289.13C437.82,290.86 434.50,293.56 432.05,295.13C429.61,296.71 426.57,298.00 425.30,298.00zM453.70,264.00C452.98,264.00 450.95,262.52 449.20,260.70C447.44,258.89 446.00,256.67 446.00,255.76C446.00,254.86 446.45,253.84 447.01,253.49C447.56,253.15 448.92,253.16 450.02,253.51C451.12,253.86 452.69,255.44 453.51,257.02C454.33,258.60 455.00,260.82 455.00,261.95C455.00,263.08 454.41,264.00 453.70,264.00zM375.11,212.43C374.63,212.73 373.71,212.36 373.08,211.60C372.45,210.84 370.60,209.66 368.97,208.99C367.34,208.31 366.00,207.21 366.00,206.53C366.00,205.86 366.82,204.57 367.83,203.65C368.83,202.74 370.18,202.00 370.83,202.00C371.47,202.00 372.90,202.90 374.00,204.00C375.10,205.10 376.00,207.32 376.00,208.94C376.00,210.56 375.60,212.13 375.11,212.43zM390.70,201.00C389.99,201.00 386.58,198.95 383.14,196.44C379.69,193.94 377.05,191.35 377.26,190.69C377.48,190.04 378.93,189.35 380.49,189.17C382.05,188.99 384.39,189.41 385.70,190.11C387.00,190.80 388.95,192.81 390.03,194.56C391.12,196.30 392.00,198.47 392.00,199.37C392.00,200.27 391.42,201.00 390.70,201.00zM366.19,184.00C365.81,183.99 363.93,183.01 362.00,181.81C360.07,180.62 356.70,179.38 354.50,179.07C351.47,178.64 350.43,178.01 350.21,176.46C349.99,174.97 351.00,173.81 353.89,172.18C357.87,169.95 357.87,169.95 361.30,172.96C363.19,174.62 365.44,177.43 366.30,179.20C367.16,180.97 367.64,182.77 367.37,183.21C367.10,183.64 366.57,184.00 366.19,184.00z" />

</svg>
